<svg xmlns="http://www.w3.org/2000/svg" viewBox="0 0 3508 2480" shape-rendering="geometricPrecision" image-rendering="optimizeQuality" fill-rule="evenodd" clip-rule="evenodd"><g fill="none" stroke="#b2b3b3" stroke-width=".9"><rect x="1226" y="476" width="1055" height="186" rx="7"/><rect x="1226" y="744" width="1055" height="186" rx="7"/><rect x="1226" y="1013" width="1055" height="186" rx="7"/><rect x="1226" y="1282" width="1055" height="186" rx="7"/><rect x="1226" y="1551" width="1055" height="186" rx="7"/><rect x="1226" y="1819" width="1055" height="186" rx="7"/></g><g fill-rule="nonzero"><g fill="#434242"><path d="M1346 589h-6l-11-38c-1-1-1-4-2-6-1-3-1-4-1-5-1 4-2 7-3 11l-11 38h-6l-15-56h7l9 34c1 5 2 10 2 13 1-4 2-9 3-13l11-34h6l11 34c1 4 2 8 3 13 0-3 1-8 3-13l9-34h6l-15 56M1404 568c0 7-2 12-5 16-4 4-9 5-15 5-3 0-7 0-10-2-2-2-5-4-6-8-2-3-3-7-3-11 0-7 2-12 5-16 4-4 9-6 15-6s10 2 14 6c3 4 5 9 5 16m-32 0c0 5 1 9 3 12s5 4 10 4c4 0 7-1 9-4s3-7 3-12c0-6-1-10-3-12-2-3-5-5-10-5-4 0-7 2-9 4-2 3-3 7-3 13M1434 546h5l-1 6h-4c-4 0-7 1-9 4-3 3-4 6-4 10v23h-6v-42h5l1 8c2-3 4-5 6-7 2-1 4-2 7-2M1474 583c-3 4-8 6-14 6-5 0-9-1-12-5s-5-9-5-16 2-12 5-16 7-6 12-6c6 0 10 2 13 6h1v-23h6v60h-5l-1-6m-13 1c4 0 8-1 10-3 2-3 3-7 3-12v-1c0-6-1-10-3-13-2-2-6-4-10-4s-6 2-8 5-3 7-3 12 1 9 3 12c1 3 4 4 8 4M1530 549c0 6-2 10-6 13s-9 5-17 5h-6v22h-7v-56h15c14 0 21 5 21 16m-29 12h6c5 0 10-1 12-3 3-2 4-5 4-9 0-3-1-6-4-8-2-2-6-3-11-3h-7v23M1560 546h5l-1 6h-5c-3 0-6 1-9 4-2 3-3 6-3 10v23h-7v-42h6v8h1c1-3 3-5 5-7 2-1 5-2 8-2M1589 589c-7 0-12-1-15-5-4-4-6-9-6-16s2-12 5-16c4-4 8-6 14-6 5 0 9 2 12 5 3 4 5 8 5 14v4h-29c0 5 1 9 4 11 2 3 5 4 10 4 4 0 9-1 13-3v6c-2 1-4 1-6 2h-7m-2-38c-4 0-6 1-8 4-2 2-3 5-4 9h22c0-4-1-7-3-9-1-3-4-4-7-4M1642 577c0 4-2 7-5 9s-7 3-12 3-10 0-13-2v-6c2 1 4 2 7 2 2 1 4 1 6 1 4 0 6 0 8-1s3-3 3-5-1-3-2-4c-2-2-5-3-9-5-4-1-6-2-8-3s-3-3-4-4-1-3-1-5c0-3 1-6 4-8s7-3 12-3c4 0 9 1 13 3l-2 5c-5-2-8-3-12-3-3 0-5 1-7 2-1 1-2 2-2 4 0 1 0 2 1 3 1 0 1 1 3 2 1 0 3 2 7 3 5 2 8 4 10 5 2 2 3 4 3 7M1679 577c0 4-1 7-4 9s-7 3-12 3c-6 0-10 0-13-2v-6c2 1 4 2 6 2 2 1 5 1 7 1 3 0 6 0 7-1 2-1 3-3 3-5s-1-3-2-4c-2-2-4-3-8-5-4-1-7-2-9-3-1-1-3-3-3-4-1-1-2-3-2-5 0-3 2-6 5-8 2-2 6-3 11-3s9 1 13 3l-2 5c-4-2-8-3-11-3s-6 1-7 2c-2 1-3 2-3 4 0 1 1 2 1 3 1 0 2 1 3 2 1 0 4 2 7 3 5 2 9 4 10 5 2 2 3 4 3 7M1729 546c6 0 10 2 13 6 3 3 5 9 5 16s-2 12-5 16-7 5-13 5c-2 0-5 0-7-1s-4-3-6-5l-2 6h-4v-60h6v23c3-4 7-6 13-6m-1 5c-4 0-7 2-9 4-2 3-3 7-3 13s1 10 3 12c2 3 5 4 10 4 3 0 6-1 8-4s3-7 3-12c0-6-1-10-3-13-2-2-5-4-9-4M1794 568c0 7-2 12-5 16-4 4-8 5-15 5-3 0-7 0-9-2-3-2-6-4-7-8-2-3-3-7-3-11 0-7 2-12 6-16 3-4 8-6 14-6s10 2 14 6c3 4 5 9 5 16m-32 0c0 5 1 9 3 12s5 4 10 4c4 0 7-1 9-4s3-7 3-12c0-6-1-10-3-12-2-3-5-5-9-5-5 0-8 2-10 4-2 3-3 7-3 13M1841 568c0 7-2 12-5 16s-8 5-14 5c-4 0-7 0-10-2s-5-4-7-8c-2-3-2-7-2-11 0-7 1-12 5-16 3-4 8-6 14-6s11 2 14 6 5 9 5 16m-32 0c0 5 1 9 3 12 3 3 6 4 10 4s7-1 9-4c3-3 4-7 4-12 0-6-1-10-4-12-2-3-5-5-9-5s-7 2-10 4c-2 3-3 7-3 13M1866 584h3c1 0 2 0 3-1v5c-1 1-2 1-3 1h-4c-8 0-12-4-12-12v-25h-6v-3l6-3 2-9h4v10h12v5h-12v24c0 3 1 5 2 6 1 2 3 2 5 2M1907 577c0 4-1 7-4 9s-7 3-13 3c-5 0-10 0-13-2v-6c2 1 5 2 7 2 2 1 4 1 7 1s5 0 7-1 3-3 3-5-1-3-2-4c-2-2-4-3-9-5-3-1-6-2-8-3s-3-3-4-4c0-1-1-3-1-5 0-3 2-6 4-8 3-2 7-3 12-3 4 0 9 1 13 3l-2 5c-4-2-8-3-12-3-3 0-5 1-6 2-2 1-3 2-3 4 0 1 1 2 1 3 1 0 2 1 3 2 1 0 4 2 7 3 5 2 9 4 10 5 2 2 3 4 3 7M1931 584h3c1 0 2 0 3-1v5c-1 1-2 1-3 1h-4c-8 0-12-4-12-12v-25h-6v-3l6-3 2-9h4v10h12v5h-12v24c0 3 1 5 2 6 1 2 3 2 5 2M1964 546h5l-1 6h-4c-4 0-7 1-9 4-3 3-4 6-4 10v23h-6v-42h5l1 8c2-3 4-5 6-7 2-1 4-2 7-2M2001 589l-1-6h-1c-2 2-4 4-6 5s-4 1-8 1-7-1-9-3c-3-2-4-5-4-9 0-8 7-13 20-13h8v-3c0-3-1-6-3-7-1-2-3-3-6-3-4 0-8 1-12 4l-2-5c2-1 4-2 7-3 2-1 5-1 7-1 5 0 9 1 11 3 3 3 4 6 4 11v29h-5m-14-5c4 0 7-1 9-3s3-5 3-9v-4h-6c-5 1-9 1-11 3-2 1-3 3-3 6 0 2 1 4 2 5 1 2 3 2 6 2M2038 589c-2 0-5 0-7-1s-4-3-6-5v24h-6v-60h5l1 6c2-3 4-4 6-5s5-2 7-2c6 0 10 2 13 6s5 9 5 16-2 12-5 16-7 5-13 5m-1-38c-4 0-7 2-9 4s-3 6-3 11v2c0 6 1 10 3 12 2 3 5 4 10 4 3 0 6-1 8-4s3-7 3-12c0-6-1-10-3-12-2-3-5-5-9-5M2086 589c-2 0-5 0-7-1s-4-3-6-5v24h-6v-60h5l1 6c2-3 4-4 6-5s5-2 7-2c6 0 10 2 13 6s5 9 5 16-2 12-5 16-7 5-13 5m-1-38c-4 0-7 2-9 4s-3 6-3 11v2c0 6 1 10 3 12 2 3 5 4 10 4 3 0 6-1 8-4s3-7 3-12c0-6-1-10-3-12-2-3-5-5-9-5M2121 589h-6v-42h6v42m-7-54c0-1 1-2 1-3 1 0 2-1 3-1s2 1 3 1c0 1 1 2 1 3 0 2-1 3-1 4-1 0-2 1-3 1s-2-1-3-1c0-1-1-2-1-4M2163 589v-27c0-4 0-6-2-8s-4-3-7-3c-5 0-8 2-10 4s-3 6-3 12v22h-6v-42h5l1 6c1-3 3-4 6-5 2-1 5-2 7-2 5 0 9 1 12 4 2 2 4 6 4 11v28h-7M2217 547v4l-8 1c1 1 2 2 2 3 1 2 1 3 1 5 0 4-1 7-4 10-3 2-7 4-12 4-1 0-2-1-3-1-3 2-4 3-4 6 0 1 0 2 1 2 1 1 3 1 5 1h7c5 0 8 1 11 3 2 2 3 5 3 8 0 5-1 8-5 11-4 2-9 3-16 3-6 0-10-1-13-3s-5-5-5-8 1-5 3-7 4-3 7-4c-1 0-2-1-3-2s-1-2-1-3c0-2 0-3 1-4 1-2 2-3 4-4-2-1-4-2-5-4-2-2-2-5-2-8 0-4 1-8 4-10 3-3 7-4 12-4 2 0 4 0 5 1h15m-33 49c0 2 0 4 2 5s5 2 9 2c5 0 9-1 11-3 3-1 4-4 4-6 0-3 0-4-2-5-1-1-4-1-8-1h-7c-3 0-5 0-7 2-2 1-2 3-2 6m3-36c0 3 1 5 2 7 2 1 4 2 7 2 7 0 10-3 10-9s-3-9-10-9c-3 0-5 0-7 2-1 2-2 4-2 7M1731 802v36c0 6-2 11-5 15-4 3-10 5-16 5-7 0-12-2-16-5-4-4-5-9-5-15v-36h6v36c0 5 1 8 4 11 2 2 6 4 11 4s8-2 11-4c3-3 4-6 4-11v-36h6M1753 834v23h-7v-55h15c7 0 12 1 16 3 3 3 5 7 5 12 0 8-4 13-12 15l15 25h-7l-14-23h-11m0-5h8c5 0 8-1 11-3 2-2 3-5 3-8 0-4-1-7-3-8-3-2-6-3-11-3h-8v22M1794 857v-55h7v50h25v5zM1519 1105c0 8-2 14-5 18-2 5-7 8-12 10l14 14h-10l-11-13h-2c-8 0-14-2-19-7-4-5-7-13-7-22s3-16 7-21c5-5 11-7 19-7s14 2 19 7c4 5 7 12 7 21m-45 0c0 8 2 14 5 18s8 5 14 5 11-1 14-5 5-10 5-18c0-7-2-13-5-17s-8-6-14-6-11 2-14 6-5 10-5 17M1536 1092v27c0 3 1 6 3 7 1 2 4 3 7 3 4 0 7-1 9-4 2-2 4-6 4-11v-22h6v41h-5l-1-5h-1c-1 2-3 3-5 5-2 1-5 1-8 1-5 0-9-1-11-3-3-3-4-7-4-12v-27h6M1596 1134c-6 0-11-2-15-5-3-4-5-10-5-16 0-7 2-12 5-16s8-6 13-6c6 0 10 1 13 5 3 3 4 8 4 14v4h-28c0 5 1 8 3 11 3 2 6 4 10 4 5 0 9-1 14-3v5c-3 1-5 2-7 3h-7m-2-38c-3 0-6 1-8 3-2 3-3 6-3 9h22c0-4-1-7-3-9s-4-3-8-3M1641 1091h5l-1 6h-4c-4 0-6 1-9 4-2 2-3 6-3 10v22h-7v-41h5l1 7c2-2 4-5 6-6 2-2 5-2 7-2M1648 1092h6l10 23c2 6 3 10 3 12h1c0-1 1-3 2-6 1-4 4-13 10-29h7l-18 47c-2 5-4 8-6 10-3 2-6 3-9 3h-6v-6c1 1 3 1 5 1 4 0 7-3 9-7l2-6-16-42M1747 1077h7l-20 56h-7l-20-56h7l13 37c1 4 3 8 3 12 1-4 3-8 4-13l13-36M1785 1133l-2-6c-2 3-4 5-6 6s-5 1-8 1c-4 0-7-1-10-3-2-2-3-5-3-9 0-9 7-13 20-14h7v-2c0-4 0-6-2-8-1-1-4-2-7-2s-7 1-12 3l-1-5c2-1 4-2 6-2 3-1 5-1 8-1 5 0 8 1 11 3 2 2 3 6 3 11v28h-4m-15-4c4 0 7-1 10-3 2-2 3-6 3-9v-4h-6c-5 0-9 1-11 2-2 2-4 4-4 7 0 2 1 4 3 5 1 1 3 2 5 2M1822 1091h5l-1 6h-5c-3 0-6 1-9 4-2 2-3 6-3 10v22h-6v-41h5v7h1c1-2 3-5 5-6 3-2 5-2 8-2M1841 1133h-7v-41h7v41m-7-53c0-1 0-2 1-3s2-1 3-1 2 0 2 1c1 1 1 2 1 3 0 2 0 3-1 3 0 1-1 1-2 1s-2 0-3-1c-1 0-1-1-1-3M1880 1133l-1-6h-1c-2 3-4 5-6 6s-4 1-8 1-7-1-9-3c-3-2-4-5-4-9 0-9 7-13 20-14h8v-2c0-4-1-6-3-8-1-1-3-2-6-2-4 0-8 1-12 3l-2-5c2-1 4-2 7-2 2-1 5-1 7-1 5 0 9 1 11 3 3 2 4 6 4 11v28h-5m-14-4c4 0 7-1 9-3s3-6 3-9v-4h-6c-5 0-9 1-11 2-2 2-3 4-3 7 0 2 0 4 2 5 1 1 3 2 6 2M1917 1091c6 0 10 2 13 5 3 4 5 10 5 16 0 7-2 13-5 16-3 4-7 6-13 6-2 0-5 0-7-1s-4-3-6-5l-2 5h-4v-59h6v23c3-4 8-6 13-6m-1 5c-4 0-7 1-9 4-2 2-3 7-3 12 0 6 1 11 3 13 2 3 5 4 10 4 3 0 6-2 8-4 2-3 3-7 3-13 0-5-1-9-3-12s-5-4-9-4M1952 1133h-6v-59h6zM1983 1134c-6 0-11-2-14-5-4-4-6-10-6-16 0-7 2-12 5-16 4-4 8-6 14-6 5 0 9 1 12 5 3 3 5 8 5 14v4h-29c0 5 1 8 4 11 2 2 5 4 10 4 4 0 9-1 13-3v5l-6 3h-8m-1-38c-4 0-6 1-8 3-2 3-4 6-4 9h22c0-4-1-7-3-9s-4-3-7-3M2037 1122c0 4-2 7-5 9s-7 3-12 3c-6 0-10-1-13-2v-6c2 1 4 1 6 2 3 1 5 1 7 1 3 0 6-1 8-2s2-2 2-4 0-4-2-5c-1-1-4-2-8-4-4-1-7-3-8-4-2-1-3-2-4-3-1-2-1-3-1-5 0-4 1-6 4-8s7-3 11-3c5 0 9 1 14 2l-3 6c-4-2-8-3-11-3s-5 1-7 1c-1 1-2 3-2 4s0 2 1 3c0 1 1 2 3 2 1 1 3 2 7 4 5 1 8 3 10 5s3 4 3 7M1620 1395h-6l-11-37c-1-2-1-4-2-7-1-2-1-4-1-4-1 3-2 7-3 11l-11 37h-6l-15-56h7l9 35c1 4 2 9 2 13 1-5 2-10 3-14l10-34h7l11 34c1 4 2 9 3 14 0-4 1-8 3-14l8-34h7l-15 56M1679 1355c0 6-1 10-5 13s-10 5-17 5h-6v22h-7v-56h15c14 0 20 5 20 16m-28 12h5c6 0 10-1 13-2 2-2 4-5 4-9s-1-7-4-9c-2-1-6-2-11-2h-7v22M1719 1407h-36v-5h36zM1775 1367c0 7-2 13-5 18-2 5-6 8-12 9l14 14h-10l-11-12h-2c-8 0-14-3-19-8-4-5-7-12-7-21s3-16 7-21c5-5 11-8 19-8s15 3 19 8c5 5 7 12 7 21m-45 0c0 7 2 13 5 17s8 6 14 6 11-2 14-6 5-9 5-17-2-13-5-17-8-6-14-6-11 2-14 6-5 9-5 17M1792 1353v27c0 4 1 6 3 8 1 2 4 2 7 2 4 0 7-1 10-3 2-3 3-7 3-12v-22h6v42h-5l-1-6h-1c-1 2-3 4-5 5s-5 2-8 2c-5 0-9-1-11-4-3-2-4-6-4-12v-27h6M1852 1396c-6 0-11-2-15-6-3-4-5-9-5-16 0-6 2-12 5-16s8-6 13-6c6 0 10 2 13 5 3 4 4 8 4 14v4h-28c0 5 1 9 3 11 3 3 6 4 10 4 5 0 9-1 14-3v6c-3 1-5 2-7 2-2 1-4 1-7 1m-2-38c-3 0-6 1-8 3s-3 5-3 9h22c0-4-1-7-3-9s-4-3-8-3M1897 1352c2 0 4 0 5 1l-1 6c-1-1-3-1-4-1-3 0-6 1-9 4-2 3-3 6-3 10v23h-7v-42h5l1 8h1c1-3 3-5 5-7 2-1 5-2 7-2M1904 1353h6l10 24c2 5 3 9 3 12h1c0-2 1-4 2-7s4-13 10-29h7l-18 48c-2 4-4 8-6 10-3 2-6 3-9 3-2 0-4 0-6-1v-5h5c4 0 7-2 9-7l2-6-16-42M1470 1611c-7 0-11 2-15 7-3 4-5 9-5 16 0 8 1 13 5 17 3 4 8 6 15 6 3 0 8 0 13-2v6c-4 1-9 2-14 2-9 0-15-2-20-7-4-5-6-12-6-22 0-5 1-11 3-15s5-8 9-10 9-3 15-3 11 1 15 3l-3 5c-4-2-8-3-12-3M1523 1662v-27c0-3-1-6-3-7-1-2-4-3-7-3-4 0-7 1-10 4-2 2-3 6-3 11v22h-6v-59h6v23h1c1-2 3-3 5-5 2-1 5-1 8-1 5 0 9 1 11 3 3 3 4 7 4 12v27h-6M1578 1641c0 7-1 13-5 16-3 4-8 6-14 6-4 0-7-1-10-3-3-1-5-4-7-7-1-3-2-7-2-12 0-7 2-12 5-16 3-3 8-5 14-5s11 2 14 5c4 4 5 10 5 16m-32 0c0 6 1 10 4 13 2 2 5 4 9 4s7-2 10-4c2-3 3-7 3-13 0-5-1-9-3-12-3-3-6-4-10-4s-7 1-9 4c-3 3-4 7-4 12M1626 1641c0 7-2 13-6 16-3 4-8 6-14 6-4 0-7-1-10-3-3-1-5-4-7-7-1-3-2-7-2-12 0-7 2-12 5-16 4-3 8-5 14-5s11 2 14 5c4 4 6 10 6 16m-32 0c0 6 1 10 3 13 2 2 5 4 9 4s8-2 10-4c2-3 3-7 3-13 0-5-1-9-3-12s-6-4-10-4-7 1-9 4-3 7-3 12M1664 1651c0 4-2 7-5 9s-7 3-12 3-10-1-13-3v-5c2 1 4 1 7 2 2 1 4 1 6 1 4 0 6-1 8-2s3-2 3-5c0-1-1-3-2-4-2-1-5-2-9-4-4-1-6-3-8-4s-3-2-4-3c-1-2-1-3-1-5 0-4 1-6 4-8s7-3 12-3c4 0 9 1 13 2l-2 6c-5-2-8-3-12-3-3 0-5 0-7 1-1 1-2 3-2 4s0 2 1 3 1 2 3 2c1 1 3 2 7 4 5 1 8 3 10 5s3 4 3 7M1692 1663c-6 0-11-2-15-6-3-3-5-9-5-15 0-7 1-12 5-16 3-4 8-6 13-6s10 1 13 5c3 3 4 8 4 13v5h-29c0 4 2 8 4 11 2 2 6 4 10 4s9-1 13-3v5c-2 1-4 2-6 2-2 1-4 1-7 1m-2-38c-3 0-6 1-8 3s-3 5-4 9h22c0-4-1-7-2-9-2-2-5-3-8-3M1756 1662h-6v-50h-18v-6h42v6h-18zM1794 1663c-6 0-11-2-15-6-3-3-5-9-5-15 0-7 1-12 5-16 3-4 8-6 13-6s10 1 13 5c3 3 4 8 4 13v5h-29c1 4 2 8 4 11 2 2 6 4 10 4 5 0 9-1 13-3v5c-2 1-4 2-6 2-2 1-4 1-7 1m-2-38c-3 0-6 1-8 3s-3 5-3 9h21c0-4 0-7-2-9s-5-3-8-3M1873 1662v-27c0-3 0-6-2-7-1-2-3-3-6-3-4 0-7 1-9 3-2 3-3 6-3 11v23h-6v-27c0-3-1-6-2-7-2-2-4-3-7-3-4 0-7 1-9 4-2 2-3 6-3 11v22h-6v-42h5l1 6h1c1-2 2-3 5-5 2-1 4-1 7-1 7 0 11 2 13 7 1-2 3-4 6-5 2-2 5-2 8-2 4 0 8 1 10 3 3 3 4 7 4 12v27h-7M1912 1663c-2 0-5 0-7-1s-4-3-6-5v24h-6v-61h5l1 6c2-2 4-4 6-5s5-1 7-1c6 0 10 2 13 5 3 4 5 9 5 16s-2 13-5 16c-3 4-7 6-13 6m-1-38c-4 0-7 1-9 4-2 2-3 6-3 11v1c0 6 1 10 3 13s5 4 10 4c3 0 6-2 8-5s3-7 3-12-1-9-3-12-5-4-9-4M1947 1662h-6v-59h6zM1986 1662l-1-6c-2 3-4 5-6 6s-5 1-8 1c-4 0-8-1-10-3s-3-5-3-9c0-9 6-13 20-14h7v-2c0-4-1-6-2-8-2-1-4-2-7-2s-7 1-12 3l-2-5c2-1 5-2 7-2 2-1 5-1 7-1 5 0 9 1 12 3 2 2 3 6 3 11v28h-5m-14-4c4 0 7-1 9-3 3-3 4-6 4-9v-4h-7c-5 0-8 1-10 2-3 2-4 4-4 7 0 2 1 4 2 5 2 1 4 2 6 2M2018 1658h3c1-1 2-1 2-1v5s-1 1-3 1h-3c-8 0-12-4-12-13v-25h-6v-3l6-2 2-9h4v9h12v5h-12v25c0 3 1 4 2 6 1 1 3 2 5 2M2050 1663c-7 0-12-2-15-6-4-3-5-9-5-15 0-7 1-12 5-16 3-4 7-6 13-6 5 0 9 1 12 5 3 3 5 8 5 13v5h-29c0 4 1 8 4 11 2 2 5 4 10 4 4 0 9-1 13-3v5c-2 1-4 2-6 2-2 1-5 1-7 1m-2-38c-4 0-6 1-8 3s-3 5-4 9h22c0-4-1-7-3-9-1-2-4-3-7-3M1493 1932v-55h6v50h25v5zM1569 1911c0 7-2 13-6 16-3 4-8 6-14 6-4 0-7-1-10-2-3-2-5-5-7-8-1-3-2-7-2-12 0-6 2-12 5-16 4-3 8-5 14-5s11 2 14 6c4 4 6 9 6 15m-32 0c0 6 1 10 3 13 2 2 5 4 9 4s8-2 10-4c2-3 3-7 3-13 0-5-1-9-3-12-2-2-6-4-10-4s-7 2-9 4c-2 3-3 7-3 12M1605 1932l-1-6c-2 3-4 5-6 6s-5 1-8 1c-4 0-8-1-10-3s-3-5-3-9c0-9 6-13 20-13l7-1v-2c0-4-1-6-2-8-2-1-4-2-7-2s-7 1-12 3l-2-5c2-1 5-2 7-2 2-1 5-1 7-1 5 0 9 1 12 3 2 2 3 6 3 11v28h-5m-14-4c4 0 7-1 9-3 3-2 4-5 4-9v-4h-7c-5 0-8 1-10 2-3 2-4 4-4 7 0 2 1 4 2 5 2 1 4 2 6 2M1652 1927h-1c-3 4-7 6-13 6-5 0-9-2-13-5-3-4-4-9-4-16s1-13 4-16c4-4 8-6 13-6 6 0 10 2 13 6h1v-3l-1-3v-17h7v59h-5l-1-5m-13 1c4 0 8-1 9-4 2-2 3-6 3-11v-1c0-6-1-11-3-13-2-3-5-4-9-4s-7 2-9 4c-2 3-3 7-3 13 0 5 1 9 3 12s5 4 9 4M1710 1932h-7v-50h-17v-5h41v5h-17zM1747 1933c-6 0-11-2-15-5-3-4-5-9-5-16s2-12 5-16 8-6 13-6c6 0 10 1 13 5 3 3 4 8 4 14v4h-28c0 5 1 8 3 11 3 2 6 4 10 4 5 0 9-1 14-3v5c-3 1-5 2-7 3h-7m-2-38c-3 0-6 1-8 3-2 3-3 6-3 9h22c0-4-1-7-3-9s-4-3-8-3M1827 1932v-27c0-3-1-6-2-7-2-2-4-3-7-3-4 0-7 1-9 4-2 2-3 5-3 10v23h-6v-27c0-3-1-6-2-7-2-2-4-3-7-3-4 0-7 1-9 4-1 2-2 6-2 11v22h-7v-41h5l1 5h1c1-2 3-3 5-5 2-1 4-1 7-1 7 0 11 2 13 7 2-2 3-4 6-5 2-2 5-2 8-2 5 0 8 1 11 3 2 3 3 7 3 12v27h-6M1866 1933c-3 0-6 0-8-1s-4-3-6-5v24h-6v-60h5l1 5c2-2 4-4 6-5s5-1 8-1c5 0 9 2 12 5 4 4 5 10 5 16 0 7-2 13-5 17-3 3-7 5-12 5m-1-38c-5 0-8 1-10 4-2 2-2 6-3 11v1c0 6 1 11 3 13 2 3 6 4 10 4 3 0 6-2 8-5 2-2 3-6 3-12 0-5-1-9-3-12-2-2-5-4-8-4M1900 1932h-6v-59h6zM1940 1932l-2-6c-2 3-4 5-6 6s-5 1-8 1c-4 0-7-1-10-3-2-2-3-5-3-9 0-9 7-13 20-13l7-1v-2c0-4-1-6-2-8-1-1-4-2-7-2s-7 1-12 3l-2-5c3-1 5-2 7-2 3-1 5-1 8-1 5 0 8 1 11 3 2 2 3 6 3 11v28h-4m-15-4c4 0 7-1 10-3 2-2 3-5 3-9v-4h-6c-5 0-9 1-11 2-2 2-4 4-4 7 0 2 1 4 3 5 1 1 3 2 5 2M1971 1928h3c1 0 2-1 3-1v5c-1 0-2 1-3 1h-4c-8 0-12-4-12-13v-25h-6v-3l6-2 3-9h3v10h12v4h-12v25c0 3 1 5 2 6s3 2 5 2M2003 1933c-6 0-11-2-15-5-3-4-5-9-5-16s1-12 5-16c3-4 8-6 13-6s10 1 13 5c3 3 4 8 4 14v4h-29c0 5 2 8 4 11 2 2 6 4 10 4 5 0 9-1 13-3v5l-6 3h-7m-2-38c-3 0-6 1-8 3-2 3-3 6-4 9h22c0-4-1-7-2-9-2-2-5-3-8-3"/></g><path fill="none" stroke="#727271" stroke-width=".9" d="M1754 661v83"/></g><path fill="#727271" d="M1765 724l-11 20-11-20z"/><path fill="none" stroke="#727271" stroke-width=".9" d="M1754 930v83"/><path fill="#727271" d="M1765 993l-11 20-11-20z"/><path fill="none" stroke="#727271" stroke-width=".9" d="M1754 1199v83"/><path fill="#727271" d="M1765 1262l-11 20-11-20z"/><path fill="none" stroke="#727271" stroke-width=".9" d="M1754 1467v84"/><path fill="#727271" d="M1765 1531l-11 20-11-20z"/><path fill="none" stroke="#727271" stroke-width=".9" d="M1754 1736v83"/><path fill="#727271" d="M1765 1799l-11 20-11-20z"/></svg>